<svg xmlns="http://www.w3.org/2000/svg" viewBox="0 0 157.491 256.795" height="273.915" width="167.991"><path d="M78.745 256.795c-12.458 0-22.593-10.136-22.593-22.595v-40.496H35.045c-11.512 0-21.927-5.39-28.576-14.79-6.647-9.398-8.261-21.013-4.426-31.866L45.744 23.343C50.754 9.164 63.708 0 78.747 0c15.038 0 27.993 9.164 33 23.344l43.702 123.703c3.834 10.856 2.221 22.47-4.426 31.868-6.648 9.399-17.063 14.789-28.575 14.789H101.34V234.2c0 12.459-10.136 22.595-22.595 22.595" fill="#a1e1d3"/><path d="M68.651 126.153V234.2c0 5.575 4.52 10.095 10.094 10.095 5.576 0 10.095-4.52 10.095-10.095V126.153H68.651z" fill="#f0bf85"/><path d="M57.53 27.507l-43.7 123.704c-5.173 14.639 5.688 29.994 21.216 29.994h87.402c15.526 0 26.387-15.355 21.214-29.994L99.961 27.507c-7.067-20.009-35.363-20.009-42.43 0L13.829 151.211c-5.172 14.639 5.69 29.994 21.217 29.994h87.402c15.526 0 26.387-15.355 21.214-29.994L99.961 27.507c-7.067-20.009-35.363-20.009-42.43 0" fill="#f24244"/><path d="M13.83 151.212c-5.173 14.638 5.688 29.992 21.216 29.992h87.402c15.526 0 26.387-15.354 21.214-29.992H13.829z" fill="#30aa31"/><path d="M84.077 137.18a5.33 5.33 0 1 1-10.66 0c0-2.944 2.385-10.448 5.33-10.448 2.944 0 5.33 7.504 5.33 10.447M66.895 116.13a5.33 5.33 0 1 1-10.662 0c0-2.944 2.387-10.448 5.33-10.448 2.945 0 5.332 7.504 5.332 10.448M101.26 116.13a5.33 5.33 0 1 1-10.661 0c0-2.944 2.386-10.448 5.33-10.448 2.945 0 5.331 7.504 5.331 10.448M118.438 137.18a5.33 5.33 0 1 1-10.662 0c0-2.944 2.387-10.448 5.33-10.448 2.945 0 5.332 7.504 5.332 10.447M49.713 137.18a5.33 5.33 0 1 1-10.66 0c0-2.944 2.385-10.448 5.33-10.448 2.944 0 5.33 7.504 5.33 10.447" fill="#1d1d1b"/><path d="M21.783 174.338c-1.96 0-3.89-.92-5.109-2.642-4.272-6.043-5.31-13.509-2.844-20.485L57.532 27.507c3.911-11.076 13.872-15.006 21.215-15.006a6.25 6.25 0 0 1 0 12.5c-1.66 0-7.244.481-9.429 6.67L25.615 155.375c-1.11 3.146-.662 6.38 1.265 9.105a6.25 6.25 0 0 1-5.097 9.858M137.769 159.546a6.252 6.252 0 0 1-5.893-4.17l-16.826-47.63a6.25 6.25 0 0 1 3.811-7.975 6.246 6.246 0 0 1 7.974 3.811l16.826 47.63a6.25 6.25 0 0 1-5.892 8.334" opacity=".2" fill="#fff"/></svg>