<svg xmlns="http://www.w3.org/2000/svg" viewBox="0 0 174.06 256.772" height="273.891" width="185.664"><path d="M87.029 256.773c-5.3 0-10.039-3.36-11.795-8.363L33.449 129.361a29.406 29.406 0 0 1-3.8.245C13.3 129.606 0 116.306 0 99.957c0-10.7 5.876-20.538 15.016-25.755a69.39 69.39 0 0 1-.033-2.16C14.983 32.32 47.303 0 87.03 0c39.726 0 72.048 32.319 72.048 72.042 0 .718-.012 1.438-.034 2.16 9.14 5.217 15.016 15.054 15.016 25.755 0 16.35-13.301 29.65-29.649 29.65-1.275 0-2.545-.082-3.802-.246l-41.785 119.05a12.517 12.517 0 0 1-11.795 8.361" fill="#a1e1d3"/><path d="M87.029 244.273l55.48-158.068H31.549l55.48 158.068 55.48-158.068H31.549l55.48 158.068z" fill="#f0bf85"/><path d="M46.798 99.958c0 9.472-7.68 17.149-17.15 17.149-9.47 0-17.147-7.677-17.147-17.15 0-9.47 7.677-17.145 17.147-17.145 9.47 0 17.15 7.676 17.15 17.146" fill="#ce74ef"/><path d="M75.488 99.958c0 9.472-7.679 17.149-17.149 17.149-9.472 0-17.147-7.677-17.147-17.15 0-9.47 7.675-17.145 17.147-17.145 9.47 0 17.15 7.676 17.15 17.146" fill="#ce74ef"/><path d="M104.179 99.958c0 9.472-7.68 17.149-17.15 17.149-9.47 0-17.147-7.677-17.147-17.15 0-9.47 7.678-17.145 17.147-17.145 9.47 0 17.15 7.676 17.15 17.146" fill="#ce74ef"/><path d="M132.87 99.958c0 9.472-7.68 17.149-17.15 17.149-9.47 0-17.148-7.677-17.148-17.15 0-9.47 7.678-17.145 17.148-17.145 9.47 0 17.15 7.676 17.15 17.146" fill="#ce74ef"/><path d="M127.26 99.958c0 9.472 7.68 17.149 17.152 17.149 9.47 0 17.148-7.677 17.148-17.15 0-9.47-7.678-17.145-17.148-17.145-9.472 0-17.151 7.676-17.151 17.146" fill="#ce74ef"/><path d="M139.627 99.963a59.262 59.262 0 0 0 6.95-27.92c0-32.884-26.663-59.544-59.547-59.544-32.887 0-59.547 26.66-59.547 59.544a59.29 59.29 0 0 0 6.948 27.92h105.196z" fill="#ce74ef"/><path d="M34.614 87.989a6.251 6.251 0 0 1-6.138-5.119 59.883 59.883 0 0 1-.993-10.827c0-32.833 26.712-59.544 59.548-59.544a6.25 6.25 0 0 1 0 12.5c-25.943 0-47.048 21.104-47.048 47.044 0 2.853.264 5.735.785 8.562a6.251 6.251 0 0 1-6.154 7.384M139.446 87.99a6.25 6.25 0 0 1-6.154-7.383c.521-2.83.785-5.712.785-8.564a46.529 46.529 0 0 0-4.131-19.234 6.253 6.253 0 0 1 3.134-8.265 6.254 6.254 0 0 1 8.266 3.134 58.985 58.985 0 0 1 5.231 24.365c0 3.61-.334 7.253-.992 10.827a6.251 6.251 0 0 1-6.14 5.12M58.34 117.106c-9.455 0-17.149-7.692-17.149-17.148a6.25 6.25 0 0 1 12.5 0 4.653 4.653 0 0 0 4.649 4.648 6.25 6.25 0 1 1 0 12.5M29.65 117.106c-9.455 0-17.15-7.692-17.15-17.148a6.25 6.25 0 0 1 12.5 0 4.653 4.653 0 0 0 4.65 4.648 6.25 6.25 0 1 1 0 12.5M115.72 117.106a6.25 6.25 0 1 1 0-12.5 4.653 4.653 0 0 0 4.649-4.648 6.25 6.25 0 1 1 12.5 0c0 9.456-7.694 17.148-17.149 17.148M144.41 117.106a6.25 6.25 0 1 1 0-12.5 4.653 4.653 0 0 0 4.65-4.648 6.25 6.25 0 1 1 12.5 0c0 9.456-7.695 17.148-17.15 17.148M81.573 115.633a6.226 6.226 0 0 1-3.13-.845c-5.28-3.065-8.562-8.747-8.562-14.83a6.25 6.25 0 1 1 12.5 0c0 1.643.894 3.181 2.336 4.018a6.25 6.25 0 0 1-3.144 11.657" opacity=".2" fill="#fff"/></svg>