<svg xmlns="http://www.w3.org/2000/svg" viewBox="0 0 125.95 256.773" height="273.891" width="134.347"><path d="M62.974 256.773c-12.459 0-22.594-10.137-22.594-22.595V189.43C16.386 180.176 0 156.642 0 130.642V62.976C0 28.251 28.25 0 62.975 0s62.975 28.251 62.975 62.976v67.666c0 26-16.385 49.536-40.381 58.792v44.744c0 12.458-10.136 22.595-22.595 22.595" fill="#a1e1d3"/><path d="M52.88 126.13v108.048c0 5.575 4.519 10.095 10.094 10.095 5.576 0 10.095-4.52 10.095-10.095V126.13h-20.19z" fill="#e1ba83"/><path d="M113.45 130.642c0 27.876-22.599 50.474-50.475 50.474S12.5 158.518 12.5 130.642V62.976C12.5 35.097 35.099 12.5 62.975 12.5s50.475 22.597 50.475 50.476v67.666z" fill="#a55c33"/><path d="M18.75 136.892a6.25 6.25 0 0 1-6.25-6.25V62.976C12.5 35.145 35.143 12.5 62.975 12.5a6.25 6.25 0 0 1 0 12.5C42.035 25 25 42.036 25 62.976v67.666a6.25 6.25 0 0 1-6.25 6.25M85.094 175.167a6.25 6.25 0 0 1-3.141-11.658c11.717-6.795 18.997-19.39 18.997-32.867V96.808a6.25 6.25 0 1 1 12.5 0v33.834c0 17.919-9.666 34.655-25.227 43.68a6.217 6.217 0 0 1-3.129.845" opacity=".2" fill="#fff"/></svg>