<svg xmlns="http://www.w3.org/2000/svg" viewBox="0 0 125.95 256.773" height="273.891" width="134.347"><path d="M62.974 256.773c-12.459 0-22.594-10.137-22.594-22.595v-40.562H23.301C10.452 193.616 0 183.164 0 170.318V62.974C0 28.25 28.251 0 62.975 0c34.724 0 62.975 28.25 62.975 62.974v107.344c0 12.846-10.451 23.298-23.3 23.298H85.569v40.562c0 12.458-10.136 22.595-22.595 22.595" fill="#a1e1d3"/><path d="M52.88 126.13v108.048c0 5.575 4.519 10.095 10.094 10.095 5.576 0 10.095-4.52 10.095-10.095V126.13h-20.19z" fill="#f0bf85"/><path d="M62.975 12.5C35.099 12.5 12.5 35.097 12.5 62.974v107.344c0 5.96 4.835 10.798 10.801 10.798h79.349c5.966 0 10.8-4.837 10.8-10.798V62.974c0-27.877-22.596-50.474-50.475-50.474" fill="#b0cf1c"/><path d="M52.88 150.83c0 5.574-4.52 10.095-10.094 10.095-5.576 0-10.096-4.521-10.096-10.095V60.451c0-5.576 4.52-10.095 10.096-10.095 5.575 0 10.095 4.52 10.095 10.095v90.38zM93.262 150.83c0 5.574-4.52 10.095-10.095 10.095-5.575 0-10.096-4.521-10.096-10.095V60.451c0-5.576 4.52-10.095 10.096-10.095 5.575 0 10.095 4.52 10.095 10.095v90.38z" fill="#849b15"/><path d="M18.75 176.567a6.25 6.25 0 0 1-6.25-6.25V62.974C12.5 35.142 35.143 12.5 62.975 12.5a6.25 6.25 0 0 1 6.25 6.25 6.25 6.25 0 0 1-6.25 6.25C42.035 25 25 42.035 25 62.974v107.343a6.25 6.25 0 0 1-6.25 6.25M107.2 176.567a6.25 6.25 0 0 1-6.25-6.25V105.64a6.25 6.25 0 0 1 6.25-6.25 6.25 6.25 0 0 1 6.25 6.25v64.677a6.25 6.25 0 0 1-6.25 6.25" opacity=".2" fill="#fff"/></svg>