<svg xmlns="http://www.w3.org/2000/svg" width="100" height="100"><path d="M34.863 51.795v29.31h12.806q9.43 0 13.45-3.268 4.018-3.323 4.018-10.878 0-7.823-4.233-11.467-4.233-3.697-13.235-3.697H34.863zm0-32.9v24.112h12.592q7.823 0 11.306-3 3.536-3.001 3.536-9.699 0-6.055-3.483-8.734-3.429-2.68-11.36-2.68H34.864zM23.985 10H47.67q12.27 0 18.915 5.305 6.644 5.305 6.644 15.003 0 7.341-3.536 11.574-3.483 4.233-10.502 5.305 7.876 1.179 12.324 6.751 4.5 5.52 4.5 14.093 0 10.877-7.126 16.45Q61.762 90 47.67 90H23.985V10z" font-weight="400" font-size="109.739" font-family="monospace" letter-spacing="0" word-spacing="0"/></svg>