<svg xmlns="http://www.w3.org/2000/svg" viewBox="0 0 125.95 256.771" height="273.889" width="134.347"><path d="M62.974 256.771c-12.459 0-22.594-10.136-22.594-22.595v-40.561H23.301C10.452 193.615 0 183.163 0 170.316V62.974C0 28.25 28.25 0 62.975 0s62.975 28.25 62.975 62.974v107.342c0 12.847-10.452 23.299-23.3 23.299H85.569v40.561c0 12.459-10.136 22.595-22.595 22.595" fill="#a1e1d3"/><path d="M52.88 126.13v108.047c0 5.575 4.519 10.095 10.094 10.095 5.576 0 10.095-4.52 10.095-10.095V126.129h-20.19z" fill="#f0bf85"/><path d="M62.975 12.5C35.099 12.5 12.5 35.097 12.5 62.973v107.342c0 5.962 4.835 10.798 10.801 10.798h79.349c5.966 0 10.8-4.836 10.8-10.798V62.974c0-27.876-22.596-50.475-50.475-50.475" fill="#feed6b"/><path d="M52.881 150.829c0 5.574-4.52 10.095-10.095 10.095-5.576 0-10.096-4.521-10.096-10.095V60.45c0-5.576 4.52-10.095 10.096-10.095 5.575 0 10.095 4.52 10.095 10.095v90.378zM93.262 150.829c0 5.574-4.52 10.095-10.095 10.095-5.575 0-10.096-4.521-10.096-10.095V60.45c0-5.576 4.52-10.095 10.096-10.095 5.575 0 10.095 4.52 10.095 10.095v90.378z" fill="#efe46e"/><path d="M18.75 176.566a6.25 6.25 0 0 1-6.25-6.25V62.974C12.5 35.142 35.143 12.5 62.975 12.5a6.25 6.25 0 1 1 0 12.5C42.035 25 25 42.035 25 62.974v107.342a6.25 6.25 0 0 1-6.25 6.25M107.2 176.566a6.25 6.25 0 0 1-6.25-6.25V105.64a6.25 6.25 0 0 1 12.5 0v64.676a6.25 6.25 0 0 1-6.25 6.25" opacity=".2" fill="#fff"/></svg>