<svg xmlns="http://www.w3.org/2000/svg" width="100" height="100"><path d="M75.023 87.106q-4.125 2.197-8.466 3.27-4.34 1.124-9.216 1.124-15.379 0-23.898-10.877-8.466-10.878-8.466-30.596 0-19.612 8.52-30.543Q42.07 8.5 57.34 8.5q4.876 0 9.216 1.125 4.34 1.072 8.466 3.269v11.091q-3.965-3.268-8.52-4.983-4.554-1.715-9.162-1.715-10.556 0-15.807 8.145-5.251 8.145-5.251 24.595 0 16.396 5.25 24.541 5.252 8.145 15.808 8.145 4.715 0 9.216-1.715 4.555-1.715 8.466-4.983v11.091z" font-weight="400" font-size="109.739" font-family="monospace" letter-spacing="0" word-spacing="0"/></svg>