<svg xmlns="http://www.w3.org/2000/svg" viewBox="0 0 114.596 256.771" height="273.889" width="122.236"><path d="M57.297 256.771c-12.458 0-22.593-10.136-22.593-22.595v-40.561H32.5c-17.921 0-32.5-14.58-32.5-32.5V47.5C0 21.309 21.309 0 47.5 0h19.596c26.192 0 47.5 21.309 47.5 47.5v113.615c0 17.92-14.578 32.5-32.5 32.5h-2.204v40.561c0 12.459-10.136 22.595-22.594 22.595" fill="#a1e1d3"/><path d="M47.204 126.13v108.047c0 5.575 4.518 10.095 10.093 10.095 5.577 0 10.095-4.52 10.095-10.095V126.129H47.204z" fill="#f0bf85"/><path d="M67.096 12.5H47.5c-19.33 0-35 15.67-35 35v113.615c0 11.046 8.953 20 20 20h49.596c11.046 0 20-8.954 20-20V47.5c0-19.33-15.67-35-35-35" fill="#ff8a92"/><path d="M31.046 43.891a2.49 2.49 0 0 1-1.767-.733l-5.833-5.832a2.5 2.5 0 1 1 3.535-3.535l5.833 5.832a2.5 2.5 0 0 1-1.768 4.268" fill="#ff456e"/><path d="M57.296 45.1a2.5 2.5 0 0 1-2.5-2.5v-8.25a2.5 2.5 0 0 1 5 0v8.25a2.5 2.5 0 0 1-2.5 2.5" fill="#78b3eb"/><path d="M57.296 103.432a2.5 2.5 0 0 1-2.5-2.5v-8.249a2.5 2.5 0 0 1 5 0v8.249a2.5 2.5 0 0 1-2.5 2.5M25.213 102.225a2.5 2.5 0 0 1-1.767-4.267l5.832-5.833a2.5 2.5 0 1 1 3.535 3.535l-5.833 5.832a2.49 2.49 0 0 1-1.767.733" opacity=".2" fill="#fff"/><path d="M28.131 74.266a2.5 2.5 0 0 1-2.5-2.5v-8.249a2.5 2.5 0 0 1 5 0v8.249a2.5 2.5 0 0 1-2.5 2.5" fill="#78b3eb"/><path d="M39.797 58.474a2.501 2.501 0 0 1-1.767-4.269l5.832-5.83a2.5 2.5 0 0 1 3.535 3.536l-5.832 5.832a2.494 2.494 0 0 1-1.768.73M45.63 87.641a2.49 2.49 0 0 1-1.767-.732l-5.833-5.832a2.501 2.501 0 0 1 3.535-3.536l5.833 5.833a2.5 2.5 0 0 1-1.768 4.267M83.545 73.058a2.5 2.5 0 0 1-1.767-4.267l5.832-5.833a2.5 2.5 0 1 1 3.535 3.535l-5.832 5.832a2.49 2.49 0 0 1-1.768.733" fill="#fffd70"/><path d="M89.38 102.224a2.49 2.49 0 0 1-1.767-.732l-5.833-5.833a2.5 2.5 0 1 1 3.535-3.535l5.833 5.833a2.5 2.5 0 0 1-1.768 4.267" fill="#ff456e"/><path d="M89.38 43.892a2.49 2.49 0 0 1-1.767-.733l-5.833-5.832a2.5 2.5 0 1 1 3.535-3.535l5.833 5.832a2.5 2.5 0 0 1-1.768 4.268M60.212 73.056a2.49 2.49 0 0 1-1.767-.732l-5.833-5.833a2.5 2.5 0 1 1 3.535-3.535l5.833 5.833a2.5 2.5 0 0 1-1.768 4.267" opacity=".2" fill="#fff"/><path d="M68.961 87.641a2.5 2.5 0 0 1-1.767-4.267l5.832-5.833a2.5 2.5 0 1 1 3.535 3.535l-5.832 5.833a2.49 2.49 0 0 1-1.768.732" fill="#78b3eb"/><path d="M71.878 59.681a2.5 2.5 0 0 1-2.5-2.5v-8.247a2.5 2.5 0 1 1 5 .001v8.246a2.5 2.5 0 0 1-2.5 2.5M57.296 103.431a2.5 2.5 0 0 1-2.5-2.5v-8.248a2.5 2.5 0 0 1 5 0v8.248a2.5 2.5 0 0 1-2.5 2.5" fill="#ff456e"/><path d="M57.296 161.764a2.5 2.5 0 0 1-2.5-2.5v-8.249a2.5 2.5 0 0 1 5 0v8.249a2.5 2.5 0 0 1-2.5 2.5" opacity=".2" fill="#fff"/><path d="M25.213 160.557a2.5 2.5 0 0 1-1.767-4.267l5.832-5.833a2.5 2.5 0 1 1 3.535 3.535l-5.833 5.832a2.49 2.49 0 0 1-1.767.733" fill="#78b3eb"/><path d="M32.256 128.475h-8.249a2.5 2.5 0 0 1 0-5h8.249a2.5 2.5 0 0 1 0 5" fill="#ff456e"/><path d="M39.797 116.806a2.501 2.501 0 0 1-1.767-4.269l5.832-5.831a2.5 2.5 0 0 1 3.535 3.537l-5.832 5.831a2.494 2.494 0 0 1-1.768.732" fill="#78b3eb"/><path d="M45.63 145.973a2.49 2.49 0 0 1-1.767-.733l-5.833-5.83a2.501 2.501 0 0 1 3.535-3.537l5.833 5.832a2.5 2.5 0 0 1-1.768 4.268" fill="#fffd70"/><path d="M83.545 131.39a2.5 2.5 0 0 1-1.767-4.267l5.832-5.833a2.5 2.5 0 1 1 3.535 3.535l-5.832 5.832a2.49 2.49 0 0 1-1.768.733" fill="#78b3eb"/><path d="M90.589 157.64h-8.25a2.5 2.5 0 0 1 0-5h8.25a2.5 2.5 0 0 1 0 5" fill="#fffd70"/><path d="M95.846 167.365a6.25 6.25 0 0 1-6.25-6.25V128.96a6.25 6.25 0 1 1 12.5 0v32.154a6.25 6.25 0 0 1-6.25 6.25M60.212 131.388a2.49 2.49 0 0 1-1.767-.733l-5.833-5.832a2.5 2.5 0 1 1 3.535-3.535l5.833 5.832a2.5 2.5 0 0 1-1.768 4.268" opacity=".2" fill="#fff"/><path d="M68.961 145.973a2.5 2.5 0 0 1-1.767-4.267l5.832-5.833a2.5 2.5 0 1 1 3.535 3.535l-5.832 5.832a2.49 2.49 0 0 1-1.768.733" fill="#ff456e"/><path d="M71.878 118.013a2.5 2.5 0 0 1-2.5-2.5v-8.247a2.5 2.5 0 1 1 5 .001v8.246a2.5 2.5 0 0 1-2.5 2.5" fill="#fffd70"/><path d="M18.75 167.365a6.25 6.25 0 0 1-6.25-6.25V47.5c0-19.3 15.701-35 35-35h19.596a6.25 6.25 0 0 1 0 12.5H47.5C35.094 25 25 35.093 25 47.5v113.615a6.25 6.25 0 0 1-6.25 6.25" opacity=".2" fill="#fff"/></svg>