<svg xmlns="http://www.w3.org/2000/svg" viewBox="0 0 157.441 220.598" height="235.304" width="167.937"><path d="M78.72 220.598c-12.459 0-22.594-10.137-22.594-22.595v-43.865c-14.206-4.278-27.177-12.644-36.928-23.902A78.698 78.698 0 0 1 0 78.721C0 35.314 35.314 0 78.72 0c43.408 0 78.721 35.314 78.721 78.721a78.703 78.703 0 0 1-19.195 51.515c-9.752 11.259-22.723 19.624-36.931 23.902v43.865c0 12.458-10.136 22.595-22.595 22.595" fill="#a1e1d3"/><path d="M68.626 89.955v108.047c0 5.577 4.519 10.095 10.094 10.095 5.576 0 10.095-4.518 10.095-10.095V89.955H68.626z" fill="#e1ba83"/><path d="M144.94 78.72c0 36.572-29.647 66.22-66.22 66.22-36.572 0-66.22-29.648-66.22-66.22S42.149 12.5 78.72 12.5c36.573 0 66.22 29.648 66.22 66.22" fill="#b0cf1c"/><path d="M102.112 78.72c0 12.918-10.472 23.39-23.392 23.39-12.919 0-23.391-10.472-23.391-23.39 0-12.92 10.472-23.392 23.39-23.392 12.92 0 23.393 10.473 23.393 23.393" fill="#f9f695"/><path d="M51.155 78.72c0 1.566-1.965 2.838-4.389 2.838-2.422 0-4.387-1.272-4.387-2.837 0-1.568 1.965-2.84 4.387-2.84 2.424 0 4.39 1.272 4.39 2.84M54.848 92.502c.784 1.357-.284 3.44-2.381 4.653-2.1 1.211-4.437 1.091-5.22-.264-.783-1.357.283-3.439 2.38-4.651 2.1-1.213 4.437-1.094 5.22.262M64.937 102.592c1.358.784 1.475 3.123.264 5.22-1.211 2.099-3.295 3.164-4.653 2.383-1.356-.784-1.472-3.123-.263-5.22 1.213-2.1 3.296-3.167 4.652-2.383M78.72 106.286c1.568 0 2.838 1.965 2.839 4.39 0 2.421-1.271 4.386-2.839 4.386-1.566 0-2.837-1.965-2.839-4.386.001-2.425 1.273-4.39 2.839-4.39M92.503 102.595c1.358-.787 3.44.283 4.653 2.38 1.21 2.1 1.093 4.436-.264 5.22-1.356.783-3.44-.283-4.653-2.38-1.211-2.1-1.092-4.44.264-5.22M102.593 92.505c.784-1.358 3.122-1.475 5.22-.264s3.165 3.295 2.382 4.653c-.784 1.355-3.122 1.472-5.22.263-2.1-1.213-3.165-3.296-2.382-4.652M106.287 78.723c0-1.57 1.966-2.839 4.389-2.839 2.422 0 4.387 1.27 4.387 2.838 0 1.566-1.966 2.837-4.387 2.839-2.425 0-4.39-1.273-4.389-2.838M102.595 64.939c-.784-1.358.285-3.44 2.38-4.653 2.1-1.21 4.436-1.093 5.22.264.782 1.356-.283 3.44-2.38 4.653-2.1 1.21-4.438 1.093-5.22-.264M92.505 54.849c-1.357-.784-1.475-3.123-.263-5.22 1.21-2.098 3.293-3.164 4.65-2.38 1.357.783 1.475 3.12.266 5.22-1.213 2.096-3.296 3.163-4.653 2.38M78.722 51.155c-1.567 0-2.838-1.967-2.838-4.389s1.27-4.388 2.837-4.388c1.566 0 2.839 1.965 2.84 4.39 0 2.422-1.272 4.388-2.839 4.387M64.94 54.849c-1.358.78-3.442-.287-4.653-2.383-1.212-2.097-1.095-4.435.263-5.219 1.356-.782 3.44.284 4.653 2.382 1.213 2.097 1.093 4.436-.263 5.22M54.85 64.936c-.785 1.358-3.123 1.475-5.22.264-2.1-1.211-3.166-3.294-2.382-4.651.784-1.355 3.121-1.474 5.22-.264 2.099 1.212 3.165 3.297 2.381 4.652" fill="#1d1d1b"/><path d="M48.73 136.873a6.213 6.213 0 0 1-3.129-.845c-20.418-11.84-33.1-33.8-33.1-57.307 0-36.514 29.705-66.222 66.219-66.222a6.25 6.25 0 0 1 0 12.5C49.099 25 25 49.1 25 78.721c0 19.066 10.296 36.88 26.87 46.495a6.25 6.25 0 0 1-3.141 11.657M108.711 136.873a6.25 6.25 0 0 1-3.142-11.657c16.575-9.614 26.871-27.43 26.871-46.495a6.25 6.25 0 0 1 12.5 0c0 23.506-12.682 45.466-33.099 57.307a6.225 6.225 0 0 1-3.13.845" opacity=".2" fill="#fff"/></svg>