<svg xmlns="http://www.w3.org/2000/svg" viewBox="0 0 114.596 256.771" height="273.889" width="122.236"><path d="M57.298 256.771c-12.46 0-22.594-10.136-22.594-22.595v-40.561H32.5c-17.92 0-32.5-14.579-32.5-32.5V47.5C0 21.307 21.309 0 47.5 0h19.596c26.192 0 47.5 21.307 47.5 47.5v113.615c0 17.921-14.58 32.5-32.5 32.5h-2.203v40.561c0 12.459-10.137 22.595-22.595 22.595" fill="#a1e1d3"/><path d="M47.204 126.129v108.047c0 5.576 4.518 10.095 10.093 10.095 5.577 0 10.095-4.519 10.095-10.095V126.129H47.204z" fill="#f0bf85"/><path d="M67.096 12.5H47.5c-19.33 0-35 15.67-35 35v113.614c0 11.045 8.954 20 20 20h49.596c11.046 0 20-8.955 20-20V47.5c0-19.33-15.67-35-35-35" fill="#ff8a92"/><path d="M102.096 47.5c0-19.33-15.67-35-35-35H47.5c-19.33 0-35 15.67-35 35v21.206h89.596V47.499z" fill="#fcf6aa"/><path d="M102.096 161.115V124.91H12.5v36.205c0 11.045 8.954 20 20 20h49.596c11.046 0 20-8.955 20-20" fill="#a55c33"/><path d="M18.75 167.365a6.25 6.25 0 0 1-6.25-6.25V47.499c0-19.3 15.701-35 35-35h19.596a6.25 6.25 0 0 1 0 12.5H47.5C35.094 25 25 35.093 25 47.5v113.616a6.25 6.25 0 0 1-6.25 6.25M95.846 167.365a6.25 6.25 0 0 1-6.25-6.25V128.96a6.25 6.25 0 0 1 12.5 0v32.154a6.25 6.25 0 0 1-6.25 6.25" opacity=".2" fill="#fff"/></svg>