<svg xmlns="http://www.w3.org/2000/svg" width="100" height="100"><path d="M76.845 83.356q-4.34 4.018-9.805 6.108Q61.628 91.5 55.305 91.5q-15.218 0-23.684-10.877-8.466-10.931-8.466-30.596 0-19.612 8.573-30.543Q40.301 8.5 55.573 8.5q5.037 0 9.645 1.446 4.608 1.394 8.895 4.287v11.092q-4.34-4.126-8.895-6.055-4.555-1.983-9.645-1.983-10.556 0-15.861 8.199-5.251 8.144-5.251 24.54 0 16.665 5.09 24.703 5.144 7.984 15.754 7.984 3.59 0 6.269-.804 2.733-.857 4.93-2.626V57.796H54.876v-8.894h21.97v34.454z" font-weight="400" font-size="109.739" font-family="monospace" letter-spacing="0" word-spacing="0"/></svg>