<svg xmlns="http://www.w3.org/2000/svg" viewBox="0 0 157.441 220.599" height="235.305" width="167.937"><path d="M78.721 220.599c-12.458 0-22.593-10.136-22.593-22.595V154.14c-14.21-4.279-27.18-12.645-36.932-23.904A78.705 78.705 0 0 1 0 78.721C0 35.314 35.314 0 78.719 0c43.407 0 78.722 35.314 78.722 78.721a78.687 78.687 0 0 1-19.196 51.514c-9.749 11.259-22.72 19.625-36.929 23.904v43.865c0 12.459-10.136 22.595-22.595 22.595" fill="#a1e1d3"/><path d="M68.627 89.957v108.047c0 5.575 4.519 10.095 10.094 10.095 5.576 0 10.095-4.52 10.095-10.095V89.957H68.627z" fill="#e1ba83"/><path d="M144.94 78.721c0 36.573-29.647 66.221-66.222 66.221-36.568 0-66.217-29.648-66.217-66.22C12.5 42.148 42.15 12.5 78.718 12.5c36.575 0 66.223 29.649 66.223 66.221" fill="#f29100"/><path d="M78.719 20c32.379 0 58.722 26.343 58.722 58.722 0 32.377-26.343 58.72-58.722 58.72C46.34 137.442 20 111.099 20 78.722 20 46.343 46.341 20 78.719 20" fill="#ffe88d"/><path d="M69.68 28.316a50.914 50.914 0 0 0-20.22 8.404c-2.284 1.596-2.55 4.89-.578 6.862l18.406 18.404c2.835 2.834 7.68.827 7.68-3.181V32.757c0-2.801-2.531-4.935-5.287-4.441M107.979 36.72a50.932 50.932 0 0 0-20.22-8.404c-2.756-.493-5.29 1.64-5.29 4.44v26.048c0 4.012 4.849 6.018 7.683 3.184l18.406-18.406c1.972-1.973 1.706-5.266-.579-6.863M28.316 87.76a50.92 50.92 0 0 0 8.401 20.22c1.599 2.287 4.89 2.55 6.863.578l18.406-18.406c2.834-2.835.828-7.68-3.182-7.68H32.757c-2.801 0-4.935 2.534-4.441 5.287M36.717 49.463a50.956 50.956 0 0 0-8.401 20.22c-.493 2.754 1.64 5.288 4.44 5.288h26.048c4.01 0 6.015-4.849 3.182-7.68L43.58 48.885c-1.973-1.973-5.267-1.707-6.864.578M87.76 129.127a50.908 50.908 0 0 0 20.218-8.404c2.288-1.596 2.551-4.89.579-6.863L90.152 95.455c-2.835-2.832-7.68-.826-7.68 3.183v26.047c0 2.802 2.531 4.935 5.287 4.442M49.462 120.723a50.926 50.926 0 0 0 20.219 8.404c2.755.492 5.289-1.641 5.289-4.441V98.638c0-4.009-4.848-6.015-7.681-3.181l-18.405 18.404c-1.973 1.972-1.708 5.266.578 6.862M129.125 69.683a50.886 50.886 0 0 0-8.402-20.22c-1.598-2.287-4.89-2.551-6.863-.579L95.454 67.291c-2.834 2.835-.827 7.68 3.181 7.68h26.048c2.801 0 4.935-2.534 4.442-5.288M120.723 107.98a50.924 50.924 0 0 0 8.401-20.218c.494-2.757-1.64-5.29-4.44-5.29H98.637c-4.01 0-6.016 4.846-3.183 7.682l18.407 18.404c1.972 1.972 5.266 1.709 6.862-.579" fill="#fcb600"/><path d="M48.731 136.874a6.213 6.213 0 0 1-3.129-.845c-20.417-11.84-33.1-33.8-33.1-57.307 0-36.514 29.705-66.221 66.219-66.221a6.25 6.25 0 1 1 0 12.5C49.1 25 25.002 49.099 25.002 78.72c0 19.066 10.297 36.882 26.87 46.496a6.25 6.25 0 0 1-3.141 11.657M108.713 136.874a6.25 6.25 0 0 1-3.143-11.657c16.575-9.614 26.871-27.43 26.871-46.495a6.25 6.25 0 1 1 12.5 0c0 23.506-12.682 45.466-33.098 57.307a6.225 6.225 0 0 1-3.13.845" opacity=".2" fill="#fff"/></svg>