<svg xmlns="http://www.w3.org/2000/svg" viewBox="0 0 86.25 256.795" height="273.915" width="92"><path d="M43.125 256.795c-12.459 0-22.594-10.136-22.594-22.595v-40.725C8.984 192.1 0 182.249 0 170.338V43.125C0 19.346 19.346 0 43.125 0S86.25 19.346 86.25 43.125v127.213c0 11.91-8.982 21.762-20.53 23.137V234.2c0 12.459-10.136 22.595-22.595 22.595" fill="#a1e1d3"/><path d="M33.031 126.153V234.2c0 5.575 4.519 10.095 10.094 10.095 5.576 0 10.095-4.52 10.095-10.095V126.153H33.03z" fill="#f0bf85"/><path d="M12.5 124.925v45.412c0 5.965 4.835 10.802 10.801 10.802H62.95c5.966 0 10.801-4.837 10.801-10.802v-45.412H12.5z" fill="#fd0"/><path d="M73.75 68.711V43.125c0-16.914-13.71-30.625-30.625-30.625C26.211 12.5 12.5 26.211 12.5 43.125v25.586h61.25z" fill="#e84e1b"/><path d="M12.5 124.924h61.25V68.711H12.5v56.213z" fill="#b0cf1c"/><path d="M18.75 176.588a6.25 6.25 0 0 1-6.25-6.25V43.125C12.5 26.239 26.238 12.5 43.125 12.5a6.25 6.25 0 1 1 0 12.5C33.131 25 25 33.131 25 43.125v127.213a6.25 6.25 0 0 1-6.25 6.25m48.75 0a6.25 6.25 0 0 1-6.25-6.25v-73.52a6.25 6.25 0 0 1 6.25-6.25 6.25 6.25 0 0 1 6.25 6.25v73.52a6.25 6.25 0 0 1-6.25 6.25" opacity=".2" fill="#fff"/></svg>